<svg width="454" height="59.698" viewBox="0 0 454 59.698" xmlns="http://www.w3.org/2000/svg"><g fill="#fff" stroke="#fff"><path d="M1.942 46.816h4.422l3.722-11.11h15.91l3.776 11.11h4.639L21.358 8.252H15.21zm16.126-34.68l6.688 19.848H11.38zM41.207 46.816h22.329v-3.83H45.899V8.253h-4.692zM70.062 46.816h4.315v-32.47l13.214 32.47h1.456l12.783-32.47v32.47h4.693V8.252h-6.473L88.508 38.294 76.588 8.252h-6.526zM116.23 46.816h23.463v-3.83h-18.77V29.018h14.347v-3.83h-14.347V12.083h17.799v-3.83h-22.491zM146.758 46.816h4.693V30.042h5.933l11.488 16.774h5.232l-11.812-17.098c5.285-1.024 9.546-4.153 9.546-10.517v-.216c0-7.712-6.094-10.733-13.483-10.733h-11.597zm4.693-20.495V12.028h7.227c5.232 0 8.468 1.726 8.468 6.957v.216c0 4.746-2.966 7.12-8.468 7.12zM180.9 46.816h4.692V8.252H180.9zm.323-41.584h3.344l5.286-6.85h-5.61zM192.657 46.816h4.423l3.722-11.11h15.91l3.776 11.11h4.639L212.074 8.252h-6.148zm16.127-34.68l6.688 19.848h-13.376z" stroke-width=".05394"/></g></svg>