<svg width="140" height="40" viewBox="0 0 140 40" xmlns="http://www.w3.org/2000/svg"><g fill="#fff" stroke="#fff"><path d="M50.136 27.12l1.824-1.824-1.152-1.152c1.344-1.04 2.128-2.672 2.128-4.672v-.128c0-3.552-2.576-5.744-6.064-5.744-3.424 0-6.048 2.336-6.048 5.824v.128c0 3.44 2.304 5.84 6 5.84.512 0 .992-.048 1.456-.144zm-5.888-7.584v-.128c0-2.08 1.008-3.248 2.624-3.248s2.64 1.2 2.64 3.232v.128c0 1.136-.272 1.984-.752 2.56l-1.024-1.04-1.84 1.696c-1.024-.4-1.648-1.472-1.648-3.2zM57.032 25.392c1.392 0 2.208-.624 2.656-1.488V25.2h2.864v-8.368h-2.864v4.816c0 1.072-.56 1.584-1.424 1.584-.816 0-1.184-.464-1.184-1.408v-4.992h-2.864v5.456c0 2.112 1.2 3.104 2.816 3.104zM64.328 25.2h2.864v-8.368h-2.864zm1.424-9.168c.896 0 1.584-.624 1.584-1.472s-.688-1.488-1.584-1.488c-.896 0-1.568.64-1.568 1.488s.672 1.472 1.568 1.472zM73.064 25.392c2.528 0 3.984-1.072 4.24-2.96h-2.688c-.112.56-.512.992-1.456.992-1.024 0-1.664-.64-1.744-1.744h5.888v-.752c0-3.008-1.968-4.32-4.256-4.32-2.528 0-4.528 1.696-4.528 4.384v.128c0 2.736 1.92 4.272 4.544 4.272zm-1.616-5.328c.144-1.008.736-1.568 1.6-1.568.928 0 1.424.56 1.472 1.568zM78.536 25.2H81.4v-3.968c0-1.344.96-1.888 2.704-1.84V16.72c-1.296-.016-2.176.528-2.704 1.776v-1.664h-2.864zM89.448 23.264c-1.104 0-1.664-.784-1.664-2.224v-.128c0-1.408.592-2.16 1.664-2.16 1.088 0 1.648.784 1.648 2.192v.128c0 1.392-.576 2.192-1.648 2.192zm-.016 2.128c2.576 0 4.576-1.632 4.576-4.352v-.128c0-2.656-1.984-4.304-4.56-4.304-2.592 0-4.592 1.696-4.592 4.384v.128c0 2.704 2 4.272 4.576 4.272zM98.488 25.2h2.864v-8.368h-2.864zm1.424-9.168c.896 0 1.584-.624 1.584-1.472s-.688-1.488-1.584-1.488c-.896 0-1.568.64-1.568 1.488s.672 1.472 1.568 1.472zM103.128 25.2h2.864v-3.968c0-1.344.96-1.888 2.704-1.84V16.72c-1.296-.016-2.176.528-2.704 1.776v-1.664h-2.864z" stroke-width=".016"/></g></svg>