<svg width="476.921" height="42.983" viewBox="0 0 476.921 42.983" xmlns="http://www.w3.org/2000/svg"><g fill="#fff" stroke="#fff"><path d="M3.439 33.164h3.17V9.743l13.794 23.42h3.82V5.847h-3.17v22.58L7.755 5.846H3.439zM37.634 33.508c3.21 0 5.425-1.643 6.342-3.516v3.172h3.171V13.18h-3.17v12.112c0 3.591-2.675 5.464-5.503 5.464-3.133 0-4.623-1.567-4.623-5.082V13.181h-3.17v12.647c0 5.502 2.98 7.68 6.953 7.68zM61.743 33.508c4.508 0 7.832-2.102 8.52-6.114H67.09c-.42 2.331-2.216 3.477-5.31 3.477-4.088 0-6.266-2.521-6.42-7.068h15.054v-1.032c0-7.144-4.355-9.933-8.978-9.933-5.502 0-9.36 4.202-9.36 10.239v.306c0 6.151 4.01 10.125 9.666 10.125zm-6.266-12.265c.534-3.553 2.712-5.77 5.96-5.77 3.286 0 5.425 1.644 5.73 5.77zM80.082 33.164h4.05l7.183-19.983h-3.286l-5.846 16.773-5.922-16.773h-3.438zM103.235 30.871c-4.05 0-6.533-2.98-6.533-7.527v-.305c0-4.585 2.522-7.565 6.533-7.565 3.974 0 6.534 2.98 6.534 7.603v.267c0 4.509-2.522 7.527-6.534 7.527zm-.038 2.637c5.693 0 9.857-4.165 9.857-10.202v-.305c0-5.999-4.164-10.163-9.819-10.163-5.654 0-9.819 4.202-9.819 10.2v.306c0 5.846 4.088 10.164 9.781 10.164zM124.173 33.508c4.852 0 7.335-2.446 7.335-6.075 0-4.241-2.903-5.158-7.03-5.922-3.667-.65-4.66-1.376-4.66-3.172 0-1.719 1.49-2.865 3.782-2.865 2.521 0 3.744.955 4.202 3.133h3.057c-.535-4.318-3.63-5.77-7.221-5.77-3.133 0-6.763 1.91-6.763 5.617 0 3.477 1.758 4.929 6.954 5.884 3.095.573 4.661 1.26 4.661 3.362 0 2.14-1.337 3.171-4.355 3.171-3.21 0-4.47-1.49-4.7-3.859h-3.095c.191 4.088 3.057 6.496 7.833 6.496zM151.453 33.164h4.05l7.182-19.983H159.4l-5.846 16.773-5.922-16.773h-3.439zM173.613 33.508c3.209 0 5.425-1.643 6.342-3.516v3.172h3.171V13.18h-3.171v12.112c0 3.591-2.675 5.464-5.502 5.464-3.133 0-4.623-1.567-4.623-5.082V13.181h-3.171v12.647c0 5.502 2.98 7.68 6.954 7.68zM197.721 33.508c4.509 0 7.833-2.102 8.52-6.114h-3.17c-.421 2.331-2.217 3.477-5.312 3.477-4.088 0-6.266-2.521-6.418-7.068h15.053v-1.032c0-7.144-4.355-9.933-8.978-9.933-5.502 0-9.361 4.202-9.361 10.239v.306c0 6.151 4.012 10.125 9.666 10.125zm-6.266-12.265c.535-3.553 2.713-5.77 5.96-5.77 3.286 0 5.426 1.644 5.732 5.77zM211.323 33.164h3.21V3.63h-3.21zM229.357 30.871c-4.05 0-6.534-2.98-6.534-7.527v-.305c0-4.585 2.522-7.565 6.534-7.565 3.973 0 6.533 2.98 6.533 7.603v.267c0 4.509-2.522 7.527-6.533 7.527zm-.039 2.637c5.693 0 9.858-4.165 9.858-10.202v-.305c0-5.999-4.165-10.163-9.82-10.163-5.654 0-9.819 4.202-9.819 10.2v.306c0 5.846 4.089 10.164 9.781 10.164zM250.294 33.508c4.852 0 7.336-2.446 7.336-6.075 0-4.241-2.904-5.158-7.03-5.922-3.668-.65-4.662-1.376-4.662-3.172 0-1.719 1.49-2.865 3.783-2.865 2.522 0 3.744.955 4.203 3.133h3.056c-.535-4.318-3.63-5.77-7.22-5.77-3.134 0-6.764 1.91-6.764 5.617 0 3.477 1.758 4.929 6.954 5.884 3.095.573 4.661 1.26 4.661 3.362 0 2.14-1.337 3.171-4.355 3.171-3.21 0-4.47-1.49-4.7-3.859h-3.094c.19 4.088 3.056 6.496 7.832 6.496zM280.095 33.508c2.904 0 5.693-1.834 6.84-3.783v3.439h3.17V3.63h-3.17v12.76c-1.147-1.948-3.21-3.552-6.534-3.552-5.502 0-9.322 4.317-9.322 10.43v.306c0 6.227 3.782 9.934 9.016 9.934zm.344-2.637c-3.362 0-6.075-2.407-6.075-7.45v-.306c0-4.852 2.37-7.641 6.343-7.641 3.897 0 6.342 2.407 6.342 7.527v.305c0 5.12-2.904 7.565-6.61 7.565zM296.6 33.164h3.172V13.18h-3.171zm1.53-24.147a2.12 2.12 0 002.1-2.102 2.12 2.12 0 00-2.1-2.1 2.12 2.12 0 00-2.102 2.1 2.12 2.12 0 002.101 2.102zM306.267 33.164h3.171V22.198c0-4.928 2.56-6.19 6.572-6.38v-2.98c-3.591.114-5.31 1.68-6.572 3.935V13.18h-3.17zM328.236 33.508c4.509 0 7.833-2.102 8.52-6.114h-3.17c-.421 2.331-2.217 3.477-5.312 3.477-4.088 0-6.265-2.521-6.418-7.068h15.053v-1.032c0-7.144-4.355-9.933-8.978-9.933-5.502 0-9.361 4.202-9.361 10.239v.306c0 6.151 4.012 10.125 9.666 10.125zm-6.266-12.265c.535-3.553 2.713-5.77 5.96-5.77 3.286 0 5.426 1.644 5.732 5.77zM350.052 33.508c4.815 0 8.291-3.21 8.712-7.527h-2.942c-.344 3.247-2.904 4.89-5.731 4.89-3.86 0-6.534-2.598-6.534-7.488v-.306c0-4.7 2.79-7.603 6.42-7.603 2.75 0 5.042 1.184 5.54 4.355h3.132c-.611-5.081-4.508-6.991-8.673-6.991-5.349 0-9.705 4.126-9.705 10.239v.306c0 6.19 4.203 10.125 9.781 10.125zM369.614 33.431c1.3 0 2.064-.19 2.713-.42v-2.675c-.688.268-1.452.42-2.445.42-1.605 0-2.484-.955-2.484-2.903V15.856h4.662V13.18h-4.662V8.635h-3.17v4.546h-2.866v2.675h2.865v12.303c0 3.133 1.758 5.272 5.387 5.272zM385.432 30.871c-4.05 0-6.533-2.98-6.533-7.527v-.305c0-4.585 2.521-7.565 6.533-7.565 3.974 0 6.534 2.98 6.534 7.603v.267c0 4.509-2.522 7.527-6.534 7.527zm-.038 2.637c5.693 0 9.857-4.165 9.857-10.202v-.305c0-5.999-4.164-10.163-9.819-10.163-5.654 0-9.819 4.202-9.819 10.2v.306c0 5.846 4.088 10.164 9.78 10.164zM406.37 33.508c4.852 0 7.335-2.446 7.335-6.075 0-4.241-2.903-5.158-7.03-5.922-3.668-.65-4.661-1.376-4.661-3.172 0-1.719 1.49-2.865 3.782-2.865 2.522 0 3.745.955 4.203 3.133h3.057c-.535-4.318-3.63-5.77-7.221-5.77-3.133 0-6.763 1.91-6.763 5.617 0 3.477 1.758 4.929 6.954 5.884 3.094.573 4.661 1.26 4.661 3.362 0 2.14-1.337 3.171-4.356 3.171-3.209 0-4.47-1.49-4.7-3.859h-3.094c.191 4.088 3.057 6.496 7.833 6.496z" stroke-width=".03821"/></g></svg>