<svg width="79.388" height="7.877" viewBox="0 0 79.388 7.877" xmlns="http://www.w3.org/2000/svg"><g fill="#fff" stroke="#fff"><path d="M2.56 4.828L.898.82C.827.646.708.6.568.6.393.599.204.717.204.953a.46.46 0 00.04.158l1.992 4.647a.321.321 0 00.323.212.321.321 0 00.323-.212L4.876 1.11a.46.46 0 00.039-.158C4.915.717 4.726.6 4.553.6c-.142 0-.26.047-.331.22zM5.238 2.796v1.607c0 .93.52 1.599 1.426 1.599.52 0 .913-.236 1.134-.662v.252c0 .26.165.378.37.378.213 0 .37-.141.37-.378V2.796a.36.36 0 00-.37-.37.365.365 0 00-.37.37v1.568c0 .535-.339.968-.93.968-.59 0-.89-.41-.89-.96V2.796a.36.36 0 00-.37-.37c-.236 0-.37.173-.37.37zM11.264 2.394c-1.017 0-1.765.772-1.765 1.804 0 .985.622 1.804 1.796 1.804.567 0 1.103-.228 1.402-.575a.328.328 0 00.095-.213.298.298 0 00-.308-.307.361.361 0 00-.244.118c-.26.244-.504.386-.913.386-.654 0-1.024-.41-1.064-.953h2.355c.213 0 .284-.126.284-.252 0-1.008-.646-1.812-1.638-1.812zm.953 1.466h-1.938c.07-.489.441-.875.985-.875.535 0 .89.402.953.875zM14.611 5.6V.97a.36.36 0 00-.37-.37.36.36 0 00-.37.37V5.6c0 .205.15.37.37.37a.36.36 0 00.37-.37zM18.739 5.6V3.883c0-.96-.583-1.489-1.623-1.489-.355 0-.78.064-1.056.174-.196.079-.346.173-.346.354 0 .174.118.307.315.307.087 0 .173-.039.244-.063.22-.078.45-.141.78-.141.685 0 .945.283.945.905v.34a1.545 1.545 0 00-1.063-.403c-.764 0-1.34.37-1.34 1.072 0 .63.544 1.063 1.308 1.063.504 0 .875-.173 1.11-.473V5.6c0 .205.143.37.363.37.244 0 .363-.165.363-.37zm-.74-.661c0 .33-.395.559-.86.559-.472 0-.803-.205-.803-.56 0-.354.323-.559.82-.559.417 0 .842.205.842.56zM25.095 5.6V3.883c0-.96-.583-1.489-1.623-1.489-.354 0-.78.064-1.055.174-.197.079-.347.173-.347.354 0 .174.118.307.315.307.087 0 .174-.039.245-.063.22-.078.449-.141.78-.141.685 0 .945.283.945.905v.34a1.545 1.545 0 00-1.064-.403c-.764 0-1.339.37-1.339 1.072 0 .63.544 1.063 1.308 1.063.504 0 .874-.173 1.11-.473V5.6c0 .205.142.37.363.37.244 0 .362-.165.362-.37zm-.74-.661c0 .33-.394.559-.859.559-.473 0-.803-.205-.803-.56 0-.354.323-.559.819-.559.417 0 .843.205.843.56zM32.105 4.198c0-1.047-.74-1.804-1.646-1.804-.528 0-1 .268-1.237.678v-.268c0-.205-.134-.378-.362-.378-.228 0-.354.165-.354.37v4.277c0 .205.15.37.37.37a.36.36 0 00.37-.37V5.325c.252.401.685.677 1.213.677.906 0 1.646-.717 1.646-1.804zm-.74 0c0 .71-.418 1.19-1.056 1.19-.638 0-1.063-.56-1.063-1.19 0-.63.425-1.19 1.063-1.19.638 0 1.056.481 1.056 1.19zM36.012 5.6V3.883c0-.96-.583-1.489-1.623-1.489-.354 0-.78.064-1.055.174-.197.079-.347.173-.347.354 0 .174.118.307.315.307.087 0 .174-.039.245-.063.22-.078.449-.141.78-.141.685 0 .945.283.945.905v.34a1.545 1.545 0 00-1.064-.403c-.764 0-1.339.37-1.339 1.072 0 .63.544 1.063 1.308 1.063.504 0 .874-.173 1.11-.473V5.6c0 .205.142.37.363.37.244 0 .362-.165.362-.37zm-.74-.661c0 .33-.394.559-.859.559-.473 0-.803-.205-.803-.56 0-.354.323-.559.819-.559.417 0 .843.205.843.56zM39.226 2.757a.33.33 0 00-.347-.347c-.496 0-.866.284-1 .733v-.339c0-.228-.15-.378-.363-.378a.364.364 0 00-.378.378V5.6c0 .205.134.37.37.37.213 0 .37-.165.37-.37V4.31c0-.796.379-1.206 1.001-1.206a.34.34 0 00.347-.346zM41.092 5.6V3.103h.678a.303.303 0 00.307-.307.303.303 0 00-.307-.307h-.678V1.457a.36.36 0 00-.37-.37.36.36 0 00-.37.37V2.49h-.599a.303.303 0 00-.307.307c0 .173.134.307.307.307h.599V5.6c0 .205.15.37.37.37a.36.36 0 00.37-.37zM43.408 5.6V2.796a.365.365 0 00-.37-.37.365.365 0 00-.37.37V5.6c0 .205.15.37.37.37a.36.36 0 00.37-.37zm-.803-4.143c0 .236.197.433.433.433a.437.437 0 00.433-.433.437.437 0 00-.433-.433.437.437 0 00-.433.433zM46.677 2.757a.33.33 0 00-.347-.347c-.496 0-.866.284-1 .733v-.339c0-.228-.15-.378-.362-.378a.364.364 0 00-.378.378V5.6c0 .205.134.37.37.37.212 0 .37-.165.37-.37V4.31c0-.796.378-1.206 1-1.206a.34.34 0 00.347-.346zM49.426 4.198c0 1.048.74 1.804 1.646 1.804.528 0 1-.268 1.237-.677v.267c0 .205.134.378.362.378.228 0 .354-.165.354-.37V.97a.36.36 0 00-.37-.37.36.36 0 00-.37.37v2.103a1.417 1.417 0 00-1.213-.678c-.906 0-1.646.717-1.646 1.804zm.74 0c0-.709.418-1.19 1.056-1.19.638 0 1.063.56 1.063 1.19 0 .63-.425 1.19-1.063 1.19-.638 0-1.056-.48-1.056-1.19zM55.75 2.394c-1.015 0-1.764.772-1.764 1.804 0 .985.623 1.804 1.796 1.804.567 0 1.103-.228 1.402-.575a.328.328 0 00.095-.213.298.298 0 00-.307-.307.361.361 0 00-.244.118c-.26.244-.505.386-.914.386-.654 0-1.024-.41-1.064-.953h2.356c.212 0 .283-.126.283-.252 0-1.008-.646-1.812-1.638-1.812zm.954 1.466h-1.938c.071-.489.441-.875.985-.875.535 0 .89.402.953.875zM63.588 5.6V3.883c0-.96-.583-1.489-1.623-1.489-.354 0-.78.064-1.055.174-.197.079-.347.173-.347.354 0 .174.119.307.315.307.087 0 .174-.039.245-.063.22-.078.449-.141.78-.141.685 0 .945.283.945.905v.34a1.545 1.545 0 00-1.064-.403c-.764 0-1.339.37-1.339 1.072 0 .63.544 1.063 1.308 1.063.504 0 .874-.173 1.11-.473V5.6c0 .205.142.37.363.37.244 0 .362-.165.362-.37zm-.74-.661c0 .33-.394.559-.859.559-.473 0-.803-.205-.803-.56 0-.354.323-.559.819-.559.417 0 .843.205.843.56zM68.314 4.198c0-1.087-.74-1.804-1.646-1.804-.528 0-.961.276-1.213.678V.969a.36.36 0 00-.37-.37.36.36 0 00-.37.37V5.6c0 .205.125.37.354.37.228 0 .362-.173.362-.378v-.267c.236.41.71.677 1.237.677.906 0 1.646-.756 1.646-1.804zm-.74 0c0 .71-.418 1.19-1.056 1.19-.638 0-1.063-.56-1.063-1.19 0-.63.425-1.19 1.063-1.19.638 0 1.056.481 1.056 1.19zM71.362 2.757a.33.33 0 00-.346-.347c-.497 0-.867.284-1 .733v-.339c0-.228-.15-.378-.363-.378a.364.364 0 00-.378.378V5.6c0 .205.134.37.37.37.213 0 .37-.165.37-.37V4.31c0-.796.378-1.206 1-1.206a.34.34 0 00.347-.346zM72.788 5.6V2.796a.365.365 0 00-.37-.37.365.365 0 00-.37.37V5.6c0 .205.15.37.37.37a.36.36 0 00.37-.37zm-.803-4.143c0 .236.196.433.433.433a.437.437 0 00.433-.433.437.437 0 00-.433-.433.437.437 0 00-.433.433zM74.71 5.6V.97a.36.36 0 00-.37-.37.36.36 0 00-.37.37V5.6c0 .205.15.37.37.37a.36.36 0 00.37-.37z" stroke-width=".00788"/></g></svg>