<svg width="345.891" height="36" viewBox="0 0 345.891 36" xmlns="http://www.w3.org/2000/svg"><g fill="#47A01A" stroke="#fff"><path d="M21.238 15.33c0-6.106-4.267-10.931-10.898-10.931H4.103a.967.967 0 00-.985.984v19.893c0 .525.394.984.985.984h6.237c6.63 0 10.898-4.825 10.898-10.93zm-1.97 0c0 5.153-3.348 9.158-9.06 9.158h-5.12V6.17h5.12c5.712 0 9.06 4.005 9.06 9.158zM31.742 11.62c-4.333 0-7.32 3.512-7.32 7.517 0 3.972 2.823 7.517 7.517 7.517 2.593 0 4.727-1.214 5.843-2.757.131-.197.197-.361.197-.591 0-.427-.295-.82-.82-.82-.362 0-.592.23-.756.426-1.181 1.412-2.626 2.068-4.464 2.068-3.447 0-5.416-2.56-5.515-5.186h11.39c.428 0 .821-.361.821-.82 0-4.203-2.855-7.354-6.893-7.354zm5.088 6.532H26.49c.263-2.691 2.364-4.89 5.252-4.89 2.823 0 4.825 2.133 5.088 4.89zM53.702 22.682c0-2.593-2.265-3.446-5.514-4.398-3.086-.887-4.005-1.576-4.005-2.922 0-1.51 1.576-2.133 3.71-2.133 1.312 0 2.69.426 3.741.984.296.165.526.296.788.296.525 0 .82-.328.82-.755s-.36-.722-.886-.985a9.386 9.386 0 00-4.431-1.149c-3.381 0-5.646 1.248-5.646 3.808 0 2.068 1.379 3.414 5.745 4.628 2.1.591 3.774 1.084 3.774 2.725 0 1.444-1.378 2.363-3.676 2.363-1.608 0-3.25-.558-4.497-1.543-.197-.164-.427-.295-.755-.295-.427 0-.755.295-.755.722 0 .263.131.558.394.755 1.411 1.182 3.348 1.871 5.515 1.871 3.643 0 5.678-1.674 5.678-3.972zM70.05 25.538c0 .558.426.985.984.985a.967.967 0 00.985-.985V5.121a.967.967 0 00-.985-.985.967.967 0 00-.985.985v9.52c-1.247-1.872-3.25-3.02-5.875-3.02-4.005 0-7.19 3.15-7.19 7.516s3.185 7.517 7.19 7.517c2.626 0 4.628-1.149 5.875-3.02v1.904zm-11.096-6.4c0-3.415 2.232-5.844 5.515-5.844 3.381 0 5.58 2.66 5.58 5.843 0 3.184-2.199 5.843-5.58 5.843-3.283 0-5.515-2.429-5.515-5.843zM83.672 11.62c-4.333 0-7.32 3.512-7.32 7.517 0 3.972 2.823 7.517 7.517 7.517 2.593 0 4.727-1.214 5.843-2.757.131-.197.197-.361.197-.591 0-.427-.296-.82-.82-.82-.362 0-.592.23-.756.426-1.182 1.412-2.626 2.068-4.464 2.068-3.447 0-5.416-2.56-5.515-5.186h11.39c.427 0 .821-.361.821-.82 0-4.203-2.856-7.354-6.893-7.354zm5.088 6.532H78.42c.262-2.691 2.363-4.89 5.252-4.89 2.823 0 4.825 2.133 5.088 4.89z" stroke-width=".03283"/></g></svg>