<svg width="660.165" height="44.467" viewBox="0 0 660.165 44.467" xmlns="http://www.w3.org/2000/svg"><g fill="#fff" stroke="#fff"><path d="M3.633 34.069V5.336h10.282q4.207 0 6.783 1.837 2.575 1.837 2.575 5.428 0 1.334-.615 2.525-.616 1.19-1.601 2.083-.985.893-2.094 1.365 2.34.738 3.859 2.647 1.519 1.909 1.519 4.659 0 2.422-1.222 4.269-1.22 1.847-3.478 2.883-2.258 1.037-5.336 1.037zm5.336-4.085h4.494q2.689 0 4.023-1.077 1.334-1.077 1.334-3.232 0-2.114-1.324-3.243t-4.012-1.129H8.969zm0-12.54h4.166q1.498 0 2.606-.492 1.109-.492 1.724-1.426.616-.934.616-2.227 0-1.888-1.303-2.883-1.303-.996-3.725-.996H8.969zM29.39 34.069V13.545h5.253V34.07zm2.626-23.972q-1.354 0-2.34-.862-.984-.862-.984-2.278t.985-2.278q.985-.862 2.34-.862 1.354 0 2.339.862.985.862.985 2.278t-.985 2.278q-.985.862-2.34.862zM50.18 34.684q-3.346 0-5.87-1.364-2.525-1.365-3.93-3.808-1.406-2.442-1.406-5.684 0-2.381.81-4.372.811-1.99 2.299-3.458 1.488-1.468 3.489-2.268 2-.8 4.382-.8 2.586 0 4.617.913 2.032.913 3.376 2.565 1.345 1.652 1.889 3.859.543 2.206.133 4.812h-16.05q-.02 1.622.77 2.833.79 1.21 2.258 1.898 1.467.688 3.458.688 1.765 0 3.386-.514 1.622-.513 3.017-1.518l1.847 3.673q-.964.78-2.4 1.355-1.437.575-3.028.882-1.59.308-3.048.308zm-5.952-13.34h10.651q-.061-2.073-1.375-3.253-1.313-1.18-3.674-1.18-2.34 0-3.858 1.18-1.519 1.18-1.744 3.253zM64.484 34.069V13.545h5.254v2.463q1.231-1.621 2.884-2.35 1.652-.728 3.458-.728 2.832 0 4.69 1.128 1.857 1.13 2.76 2.894.903 1.765.903 3.694V34.07h-5.254v-11.78q0-2.094-1.211-3.326-1.211-1.23-3.386-1.23-1.417 0-2.515.625-1.098.626-1.713 1.755-.616 1.129-.616 2.606v11.35zM94.879 34.069l-7.532-20.524h5.705l5.234 16.008h-.698l5.13-16.008h5.563l-7.348 20.524zM121.087 34.684q-3.345 0-5.87-1.364-2.524-1.365-3.93-3.808-1.405-2.442-1.405-5.684 0-2.381.81-4.372.81-1.99 2.299-3.458 1.488-1.468 3.489-2.268 2-.8 4.381-.8 2.586 0 4.618.913 2.032.913 3.376 2.565 1.345 1.652 1.888 3.859.544 2.206.134 4.812h-16.05q-.02 1.622.77 2.833.79 1.21 2.258 1.898 1.467.688 3.458.688 1.765 0 3.386-.514 1.622-.513 3.017-1.518l1.847 3.673q-.964.78-2.4 1.355-1.438.575-3.028.882-1.59.308-3.048.308zm-5.952-13.34h10.652q-.062-2.073-1.375-3.253-1.313-1.18-3.674-1.18-2.34 0-3.858 1.18-1.519 1.18-1.745 3.253zM135.392 34.069V13.545h5.254v2.463q1.231-1.621 2.883-2.35 1.653-.728 3.459-.728 2.832 0 4.69 1.128 1.856 1.13 2.76 2.894.903 1.765.903 3.694V34.07h-5.254v-11.78q0-2.094-1.211-3.326-1.211-1.23-3.387-1.23-1.416 0-2.514.625-1.098.626-1.713 1.755-.616 1.129-.616 2.606v11.35zM161.19 34.069V13.545h5.254V34.07zm2.627-23.972q-1.355 0-2.34-.862-.985-.862-.985-2.278t.985-2.278q.985-.862 2.34-.862 1.354 0 2.34.862.984.862.984 2.278t-.985 2.278q-.985.862-2.34.862zM181.036 34.684q-2.997 0-5.316-1.395-2.319-1.396-3.632-3.859-1.314-2.462-1.314-5.623 0-2.278.75-4.259.748-1.98 2.134-3.468 1.385-1.488 3.273-2.32 1.888-.83 4.187-.83 2.647 0 4.638 1.057 1.99 1.057 3.386 2.986l-1.149 1.19V4.515h5.254V34.07h-4.638v-5.07l.739 1.19q-1.047 1.95-3.12 3.223-2.073 1.272-5.192 1.272zm.964-4.597q1.724 0 3.089-.77t2.145-2.175q.78-1.406.78-3.335 0-1.93-.78-3.345-.78-1.416-2.135-2.176-1.354-.76-3.099-.76-1.744 0-3.109.76t-2.134 2.176q-.77 1.416-.77 3.345 0 1.93.78 3.335.78 1.406 2.134 2.175 1.355.77 3.1.77zM208.804 34.684q-3.284 0-5.819-1.488-2.534-1.488-3.971-3.96-1.437-2.474-1.437-5.429 0-2.175.821-4.146.821-1.97 2.33-3.478 1.508-1.509 3.56-2.381 2.053-.872 4.516-.872 3.263 0 5.797 1.477 2.535 1.478 3.982 3.961 1.447 2.484 1.447 5.439 0 2.175-.831 4.135-.832 1.96-2.33 3.48-1.498 1.518-3.55 2.39-2.053.872-4.515.872zm0-4.597q1.724 0 3.088-.77 1.365-.77 2.145-2.175.78-1.406.78-3.335 0-1.93-.78-3.345-.78-1.416-2.134-2.176-1.355-.76-3.1-.76-1.744 0-3.109.76-1.364.76-2.134 2.176-.77 1.416-.77 3.345 0 1.93.78 3.335.78 1.406 2.135 2.175 1.354.77 3.099.77zM231.543 34.664q-2.647 0-4.915-.719-2.268-.718-3.848-1.97l1.827-3.735q1.518 1.088 3.345 1.724 1.826.636 3.57.636 1.848 0 2.874-.616 1.026-.615 1.026-1.723 0-1.047-.903-1.54-.903-.492-3.407-1.026-3.981-.78-5.787-2.309-1.806-1.529-1.806-4.217 0-1.909 1.057-3.366t2.914-2.268q1.857-.81 4.28-.81 2.36 0 4.463.656 2.104.657 3.622 1.847l-1.744 3.756q-.8-.677-1.827-1.17-1.026-.492-2.165-.76-1.139-.266-2.247-.266-1.622 0-2.617.575-.995.574-.995 1.621 0 1.047.923 1.55.924.502 3.346 1.056 4.104.883 5.87 2.34 1.764 1.457 1.764 4.084 0 2.012-1.088 3.5-1.087 1.487-3.027 2.319-1.94.83-4.505.83zM263.498 34.684q-3.017 0-5.346-1.395-2.33-1.396-3.664-3.859-1.334-2.462-1.334-5.623 0-2.38.76-4.371.76-1.991 2.144-3.448 1.386-1.458 3.284-2.258 1.899-.8 4.156-.8 2.976 0 5.008 1.272 2.032 1.273 3.037 3.304l-.739 1.13v-5.09h4.618v20.523h-4.618v-5.09l.74 1.129q-1.006 2.031-3.038 3.304-2.032 1.272-5.008 1.272zm.78-4.597q1.703 0 3.037-.77 1.334-.77 2.114-2.175.78-1.406.78-3.335 0-1.93-.78-3.345-.78-1.416-2.114-2.176-1.334-.76-3.037-.76-1.703 0-3.048.76-1.344.76-2.114 2.176-.77 1.416-.77 3.345 0 1.93.77 3.335.77 1.406 2.114 2.175 1.345.77 3.048.77zM303.539 34.684q-2.011 0-3.633-.595-1.621-.595-2.811-1.642-1.19-1.046-1.868-2.421l.739-1.17v5.213h-4.638V4.515h5.233v13.73l-1.129-1.19q1.375-1.93 3.376-3.027 2.001-1.098 4.649-1.098 3.037 0 5.377 1.447 2.34 1.446 3.653 3.92 1.314 2.473 1.314 5.51 0 2.36-.76 4.361t-2.134 3.458q-1.375 1.457-3.253 2.258-1.878.8-4.115.8zm-.965-4.597q1.724 0 3.09-.77 1.364-.77 2.144-2.175.78-1.406.78-3.335 0-1.93-.78-3.345-.78-1.416-2.135-2.176-1.354-.76-3.099-.76-1.744 0-3.109.76t-2.134 2.176q-.77 1.416-.77 3.345 0 1.93.78 3.335.78 1.406 2.134 2.175 1.355.77 3.1.77zM327.839 34.684q-3.284 0-5.819-1.488-2.534-1.488-3.971-3.96-1.437-2.474-1.437-5.429 0-2.175.821-4.146.821-1.97 2.33-3.478 1.508-1.509 3.56-2.381 2.053-.872 4.516-.872 3.263 0 5.797 1.477 2.535 1.478 3.982 3.961 1.447 2.484 1.447 5.439 0 2.175-.831 4.135-.832 1.96-2.33 3.48-1.498 1.518-3.55 2.39-2.053.872-4.515.872zm0-4.597q1.723 0 3.088-.77t2.145-2.175q.78-1.406.78-3.335 0-1.93-.78-3.345-.78-1.416-2.134-2.176-1.355-.76-3.1-.76-1.744 0-3.109.76t-2.134 2.176q-.77 1.416-.77 3.345 0 1.93.78 3.335.78 1.406 2.135 2.175 1.354.77 3.099.77zM343.395 34.069V13.545h5.254v2.689q1.067-1.806 2.678-2.566 1.611-.759 3.48-.759.656 0 1.21.062.554.061 1.067.184l-.657 5.419q-.636-.226-1.323-.34-.688-.112-1.365-.112-2.217 0-3.653 1.324-1.437 1.324-1.437 3.704V34.07zM368.823 34.684q-2.996 0-5.315-1.395-2.32-1.396-3.633-3.859-1.313-2.462-1.313-5.623 0-2.278.749-4.259.749-1.98 2.134-3.468 1.386-1.488 3.274-2.32 1.888-.83 4.187-.83 2.647 0 4.638 1.057 1.99 1.057 3.386 2.986l-1.15 1.19V4.515h5.255V34.07h-4.638v-5.07l.738 1.19q-1.046 1.95-3.12 3.223-2.072 1.272-5.192 1.272zm.965-4.597q1.724 0 3.089-.77t2.144-2.175q.78-1.406.78-3.335 0-1.93-.78-3.345-.78-1.416-2.134-2.176-1.354-.76-3.099-.76-1.744 0-3.11.76-1.364.76-2.134 2.176-.77 1.416-.77 3.345 0 1.93.78 3.335.78 1.406 2.135 2.175 1.355.77 3.1.77zM396.591 34.684q-3.283 0-5.818-1.488-2.535-1.488-3.971-3.96-1.437-2.474-1.437-5.429 0-2.175.821-4.146.821-1.97 2.33-3.478 1.508-1.509 3.56-2.381 2.053-.872 4.515-.872 3.264 0 5.798 1.477 2.535 1.478 3.982 3.961 1.447 2.484 1.447 5.439 0 2.175-.832 4.135-.83 1.96-2.329 3.48-1.498 1.518-3.55 2.39-2.053.872-4.516.872zm0-4.597q1.724 0 3.09-.77 1.364-.77 2.144-2.175.78-1.406.78-3.335 0-1.93-.78-3.345-.78-1.416-2.135-2.176-1.354-.76-3.099-.76-1.744 0-3.109.76t-2.134 2.176q-.77 1.416-.77 3.345 0 1.93.78 3.335.78 1.406 2.134 2.175 1.355.77 3.1.77z" stroke-width=".02052"/></g></svg>