<svg width="373.982" height="76.414" viewBox="0 0 373.982 76.414" xmlns="http://www.w3.org/2000/svg"><g fill="#fff" stroke="#fff"><path d="M9.61 30.556h3.662l8.695-25.17H19.08L11.582 27.6 4.084 5.386H1.056zM31.155 30.873c2.957 0 4.999-1.514 5.843-3.239v2.922h2.922v-18.41h-2.922v11.158c0 3.31-2.464 5.035-5.069 5.035-2.886 0-4.26-1.444-4.26-4.682V12.145h-2.921v11.652c0 5.07 2.746 7.076 6.407 7.076zM53.368 30.873c4.154 0 7.217-1.936 7.85-5.632h-2.922c-.387 2.147-2.041 3.203-4.893 3.203-3.767 0-5.773-2.323-5.914-6.512h13.87v-.95c0-6.584-4.013-9.154-8.273-9.154-5.069 0-8.624 3.873-8.624 9.435v.281c0 5.668 3.696 9.33 8.906 9.33zm-5.773-11.3c.492-3.274 2.5-5.316 5.491-5.316 3.028 0 5 1.514 5.28 5.316zM65.9 30.556h2.957V3.344H65.9zM79.453 30.873c2.711 0 4.366-.915 5.739-2.64v2.323h2.921V18.411c0-5.14-3.203-6.583-6.723-6.583-3.556 0-6.9 1.55-7.287 5.738h2.921c.282-2.253 1.69-3.309 4.225-3.309 2.816 0 3.943 1.232 3.943 4.154v1.338h-2.64c-4.718 0-9.224 1.443-9.224 5.703 0 3.767 2.71 5.421 6.125 5.421zm.282-2.323c-2.57 0-3.485-1.197-3.485-3.098 0-2.71 2.71-3.626 6.407-3.626h2.535v2.288c0 2.852-2.359 4.436-5.457 4.436zM107.792 30.873c2.71 0 4.365-.915 5.738-2.64v2.323h2.922V18.411c0-5.14-3.204-6.583-6.724-6.583-3.555 0-6.9 1.55-7.287 5.738h2.922c.282-2.253 1.69-3.309 4.224-3.309 2.817 0 3.943 1.232 3.943 4.154v1.338h-2.64c-4.717 0-9.223 1.443-9.223 5.703 0 3.767 2.71 5.421 6.125 5.421zm.282-2.323c-2.57 0-3.486-1.197-3.486-3.098 0-2.71 2.711-3.626 6.407-3.626h2.535v2.288c0 2.852-2.359 4.436-5.456 4.436zM131.519 36.963h2.922V27.53c1.056 1.83 3.203 3.344 6.23 3.344 5.07 0 8.379-3.872 8.379-9.505v-.281c0-5.738-3.555-9.259-8.378-9.259-2.676 0-5.175 1.62-6.231 3.415v-3.098h-2.922zm8.871-8.519c-3.59 0-6.055-2.218-6.055-6.935v-.282c0-4.717 2.605-6.97 6.02-6.97 3.098 0 5.668 2.324 5.668 6.97v.282c0 4.47-1.972 6.935-5.633 6.935zM158.203 30.873c2.71 0 4.365-.915 5.738-2.64v2.323h2.922V18.411c0-5.14-3.204-6.583-6.724-6.583-3.555 0-6.9 1.55-7.287 5.738h2.922c.281-2.253 1.69-3.309 4.224-3.309 2.816 0 3.943 1.232 3.943 4.154v1.338h-2.64c-4.717 0-9.223 1.443-9.223 5.703 0 3.767 2.71 5.421 6.125 5.421zm.281-2.323c-2.57 0-3.485-1.197-3.485-3.098 0-2.71 2.711-3.626 6.407-3.626h2.535v2.288c0 2.852-2.359 4.436-5.457 4.436zM172.6 30.556h2.923V20.453c0-4.541 2.358-5.703 6.055-5.879v-2.746c-3.31.106-4.893 1.55-6.055 3.626v-3.309H172.6zM191.61 30.803c1.198 0 1.902-.176 2.5-.387V27.95c-.634.247-1.338.388-2.253.388-1.478 0-2.288-.88-2.288-2.676V14.61h4.295v-2.464h-4.295v-4.19h-2.922v4.19h-2.64v2.464h2.64v11.336c0 2.886 1.62 4.858 4.964 4.858zM198.58 30.556h2.923v-18.41h-2.922zm1.409-22.248c1.056 0 1.936-.88 1.936-1.936s-.88-1.936-1.936-1.936-1.936.88-1.936 1.936.88 1.936 1.936 1.936zM207.487 30.556h2.922V20.453c0-4.541 2.359-5.703 6.055-5.879v-2.746c-3.31.106-4.893 1.55-6.055 3.626v-3.309h-2.922zM236.987 30.873c2.676 0 5.246-1.69 6.302-3.485v3.168h2.922V3.344h-2.922v11.758c-1.056-1.795-2.957-3.274-6.02-3.274-5.07 0-8.59 3.978-8.59 9.61v.282c0 5.738 3.486 9.153 8.308 9.153zm.317-2.429c-3.098 0-5.597-2.218-5.597-6.864v-.282c0-4.47 2.183-7.04 5.844-7.04 3.59 0 5.843 2.217 5.843 6.934v.282c0 4.717-2.675 6.97-6.09 6.97zM259.658 30.873c4.154 0 7.217-1.936 7.85-5.632h-2.921c-.388 2.147-2.042 3.203-4.894 3.203-3.766 0-5.773-2.323-5.914-6.512h13.87v-.95c0-6.584-4.013-9.154-8.272-9.154-5.07 0-8.625 3.873-8.625 9.435v.281c0 5.668 3.696 9.33 8.906 9.33zm-5.773-11.3c.493-3.274 2.5-5.316 5.492-5.316 3.027 0 4.998 1.514 5.28 5.316zM286.06 30.873c2.711 0 4.366-.915 5.739-2.64v2.323h2.922V18.411c0-5.14-3.204-6.583-6.724-6.583-3.556 0-6.9 1.55-7.287 5.738h2.922c.281-2.253 1.69-3.309 4.224-3.309 2.816 0 3.943 1.232 3.943 4.154v1.338h-2.64c-4.718 0-9.224 1.443-9.224 5.703 0 3.767 2.71 5.421 6.126 5.421zm.282-2.323c-2.57 0-3.485-1.197-3.485-3.098 0-2.71 2.71-3.626 6.407-3.626h2.535v2.288c0 2.852-2.359 4.436-5.457 4.436zM309.612 30.873c5.069 0 8.378-3.872 8.378-9.505v-.281c0-5.738-3.556-9.259-8.378-9.259-2.676 0-5.175 1.62-6.231 3.415V3.344h-2.922v27.212h2.922V27.53c1.056 1.83 3.238 3.344 6.23 3.344zm-.282-2.429c-3.59 0-6.055-2.218-6.055-6.935v-.282c0-4.717 2.605-6.97 6.02-6.97 3.098 0 5.667 2.324 5.667 6.97v.282c0 4.47-1.971 6.935-5.632 6.935zM322.531 30.556h2.922V20.453c0-4.541 2.359-5.703 6.055-5.879v-2.746c-3.31.106-4.893 1.55-6.055 3.626v-3.309h-2.922zM335.838 30.556h2.922v-18.41h-2.922zm1.408-22.248c1.056 0 1.936-.88 1.936-1.936s-.88-1.936-1.936-1.936-1.936.88-1.936 1.936.88 1.936 1.936 1.936zM344.815 30.556h2.957V3.344h-2.957z" stroke-width=".0352"/></g></svg>