<svg width="345.891" height="28" viewBox="0 0 345.891 28" xmlns="http://www.w3.org/2000/svg"><g fill="#47A01A" stroke="#fff"><path d="M3.963 12.348h5.266c.383 0 .69-.307.69-.69a.687.687 0 00-.69-.69H3.963V4.805h9.075c.384 0 .69-.307.69-.69a.687.687 0 00-.69-.69H3.196a.753.753 0 00-.767.767v15.492c0 .435.332.767.767.767h9.868c.383 0 .69-.307.69-.69a.687.687 0 00-.69-.69H3.963zM24.21 20.759c4.448 0 7.184-2.736 7.184-7.005V3.988a.753.753 0 00-.767-.767.753.753 0 00-.767.767v9.868c0 3.324-1.713 5.548-5.65 5.548-3.937 0-5.65-2.224-5.65-5.548V3.988a.753.753 0 00-.767-.767.753.753 0 00-.767.767v9.766c0 4.27 2.736 7.005 7.184 7.005zM49.417 8.155c0-2.71-1.866-4.73-5.24-4.73h-7.338a.77.77 0 00-.767.768v15.696c0 .435.332.767.767.767.46 0 .767-.332.767-.767v-7.004h6.314l3.605 7.337c.153.281.332.434.716.434a.742.742 0 00.741-.741.832.832 0 00-.102-.358l-3.323-6.8c2.505-.46 3.86-2.275 3.86-4.602zm-1.534 0c0 1.943-1.278 3.35-3.4 3.35h-6.877V4.805h6.877c2.122 0 3.4 1.406 3.4 3.35z" stroke-width=".02556"/></g></svg>