<svg width="430.222" height="34.13" viewBox="0 0 430.222 34.13" xmlns="http://www.w3.org/2000/svg"><g fill="#fff" stroke="#fff"><path d="M2.994 26.44V4.14h2.804l11.945 17.042V4.141h2.93V26.44h-2.802L5.94 9.206V26.44zM32.205 26.917q-2.086 0-3.448-.844t-2.03-2.198q-.67-1.354-.67-2.899V10.831h2.93v9.524q0 1.72 1.044 2.78 1.043 1.059 2.875 1.059 1.179 0 2.134-.542.956-.541 1.521-1.52.566-.98.566-2.27V10.83h2.93V26.44h-2.691v-1.912q-.972 1.179-2.27 1.784t-2.89.605zM52.146 26.917q-2.484 0-4.38-1.035-1.895-1.035-2.962-2.89-1.067-1.856-1.067-4.325 0-1.784.613-3.313.613-1.529 1.72-2.644 1.107-1.115 2.596-1.736 1.49-.621 3.241-.621 1.896 0 3.385.669 1.49.669 2.469 1.871.98 1.203 1.41 2.82.43 1.616.175 3.511h-12.71q-.048 1.561.637 2.732.684 1.17 1.983 1.824 1.298.653 3.081.653 1.307 0 2.549-.414 1.242-.415 2.198-1.227l1.242 2.182q-.764.621-1.808 1.06-1.043.437-2.174.66-1.13.223-2.198.223zm-5.351-9.97h9.62q-.064-1.975-1.226-3.082-1.163-1.107-3.33-1.107-2.102 0-3.472 1.107t-1.592 3.082zM66.911 26.44l-5.957-15.61h3.25L68.87 23.94h-.51l4.588-13.108H76.1L70.224 26.44zM86.008 26.917q-2.42 0-4.316-1.13-1.896-1.131-2.979-3.01-1.083-1.88-1.083-4.142 0-1.672.621-3.17.622-1.497 1.752-2.651 1.131-1.155 2.66-1.808 1.53-.653 3.345-.653 2.437 0 4.332 1.13 1.896 1.132 2.979 3.011 1.083 1.88 1.083 4.141 0 1.672-.621 3.17-.622 1.497-1.752 2.644-1.131 1.146-2.66 1.807-1.53.661-3.36.661zm0-2.644q1.577 0 2.795-.692 1.219-.693 1.92-1.96.7-1.266.7-2.986 0-1.736-.692-3.002-.693-1.266-1.92-1.951-1.226-.685-2.803-.685t-2.795.685q-1.219.685-1.911 1.95-.693 1.267-.693 3.003 0 1.72.693 2.986.692 1.267 1.919 1.96 1.226.692 2.787.692zM103.13 26.901q-1.848 0-3.496-.55-1.649-.549-2.748-1.472l1.211-2.214q1.035.86 2.365 1.346 1.33.485 2.668.485 1.656 0 2.58-.597.924-.597.924-1.696 0-1.02-.796-1.513-.797-.494-2.963-1.02-2.867-.653-4.165-1.752t-1.298-3.026q0-1.37.765-2.429.764-1.059 2.094-1.664 1.33-.605 3.066-.605 1.72 0 3.21.485 1.489.486 2.588 1.41l-1.131 2.23q-.558-.526-1.314-.908-.757-.382-1.617-.597-.86-.215-1.72-.215-1.418 0-2.317.573-.9.573-.9 1.593 0 1.067.868 1.56.868.494 2.89.972 2.931.653 4.205 1.744 1.275 1.091 1.275 3.003 0 1.48-.78 2.572-.781 1.09-2.183 1.688-1.402.597-3.281.597zM125.444 26.44l-5.957-15.61h3.25l4.666 13.109h-.51l4.588-13.108h3.153l-5.877 15.609zM143.697 26.917q-2.086 0-3.448-.844t-2.03-2.198q-.67-1.354-.67-2.899V10.831h2.93v9.524q0 1.72 1.044 2.78 1.043 1.059 2.875 1.059 1.179 0 2.134-.542.956-.541 1.521-1.52.566-.98.566-2.27V10.83h2.93V26.44h-2.691v-1.912q-.972 1.179-2.27 1.784t-2.89.605zM163.638 26.917q-2.484 0-4.38-1.035-1.895-1.035-2.962-2.89-1.067-1.856-1.067-4.325 0-1.784.613-3.313.613-1.529 1.72-2.644 1.107-1.115 2.596-1.736 1.49-.621 3.241-.621 1.896 0 3.385.669 1.49.669 2.469 1.871.98 1.203 1.41 2.82.43 1.616.174 3.511h-12.71q-.047 1.561.638 2.732.684 1.17 1.982 1.824 1.299.653 3.082.653 1.306 0 2.549-.414 1.242-.415 2.198-1.227l1.242 2.182q-.764.621-1.808 1.06-1.043.437-2.174.66-1.13.223-2.198.223zm-5.351-9.97h9.62q-.064-1.975-1.227-3.082-1.162-1.107-3.328-1.107-2.103 0-3.473 1.107-1.37 1.107-1.592 3.082zM174.612 26.44V3.504h2.93V26.44zM189.6 26.917q-2.421 0-4.316-1.13-1.896-1.131-2.979-3.01-1.083-1.88-1.083-4.142 0-1.672.621-3.17.622-1.497 1.752-2.651 1.131-1.155 2.66-1.808 1.53-.653 3.345-.653 2.437 0 4.332 1.13 1.896 1.132 2.979 3.011 1.083 1.88 1.083 4.141 0 1.672-.621 3.17-.622 1.497-1.752 2.644-1.131 1.146-2.66 1.807-1.53.661-3.361.661zm0-2.644q1.577 0 2.795-.692 1.219-.693 1.92-1.96.7-1.266.7-2.986 0-1.736-.693-3.002-.692-1.266-1.919-1.951-1.226-.685-2.803-.685t-2.795.685q-1.219.685-1.912 1.95-.692 1.267-.692 3.003 0 1.72.692 2.986.693 1.267 1.92 1.96 1.226.692 2.787.692zM206.722 26.901q-1.848 0-3.496-.55-1.649-.549-2.748-1.472l1.21-2.214q1.036.86 2.366 1.346 1.33.485 2.668.485 1.656 0 2.58-.597.924-.597.924-1.696 0-1.02-.796-1.513-.797-.494-2.963-1.02-2.867-.653-4.165-1.752t-1.298-3.026q0-1.37.765-2.429.764-1.059 2.094-1.664 1.33-.605 3.066-.605 1.72 0 3.21.485 1.489.486 2.588 1.41l-1.131 2.23q-.558-.526-1.314-.908-.757-.382-1.617-.597-.86-.215-1.72-.215-1.418 0-2.317.573-.9.573-.9 1.593 0 1.067.868 1.56.868.494 2.89.972 2.931.653 4.205 1.744 1.275 1.091 1.275 3.003 0 1.48-.78 2.572-.781 1.09-2.183 1.688-1.402.597-3.281.597zM231.553 26.917q-2.31 0-4.086-1.099-1.775-1.099-2.77-2.97-.996-1.872-.996-4.213 0-1.72.573-3.217t1.617-2.636q1.043-1.14 2.492-1.784 1.45-.645 3.202-.645 2.245 0 3.846.908 1.6.908 2.636 2.437l-.59.653V3.504h2.931V26.44h-2.691v-3.664l.43.67q-.908 1.496-2.493 2.484-1.585.987-4.101.987zm.525-2.644q1.577 0 2.796-.692 1.218-.693 1.919-1.96.7-1.266.7-2.986 0-1.736-.692-3.002-.693-1.266-1.92-1.951-1.226-.685-2.803-.685-1.576 0-2.795.685-1.218.685-1.911 1.95-.693 1.267-.693 3.003 0 1.72.693 2.986.693 1.267 1.92 1.96 1.226.692 2.786.692zM245.473 26.44V10.83h2.931v15.61zm1.466-18.556q-.829 0-1.434-.557-.605-.558-.605-1.418 0-.86.605-1.41.605-.549 1.434-.549.844 0 1.441.55.597.549.597 1.41 0 .86-.597 1.417t-1.441.557zM253.469 26.44V10.83h2.93v2.262q.94-1.529 2.238-2.142t2.764-.613q.462 0 .892.048.43.047.844.127l-.43 3.042q-.446-.127-.908-.199-.462-.072-.908-.072-1.959 0-3.225 1.219-1.266 1.218-1.266 3.257v8.68zM272.916 26.917q-2.484 0-4.38-1.035-1.895-1.035-2.962-2.89-1.067-1.856-1.067-4.325 0-1.784.613-3.313.613-1.529 1.72-2.644 1.107-1.115 2.596-1.736 1.49-.621 3.241-.621 1.896 0 3.385.669 1.49.669 2.469 1.871.98 1.203 1.41 2.82.43 1.616.175 3.511h-12.71q-.048 1.561.637 2.732.684 1.17 1.982 1.824 1.299.653 3.082.653 1.306 0 2.549-.414 1.242-.415 2.198-1.227l1.242 2.182q-.764.621-1.808 1.06-1.043.437-2.174.66-1.13.223-2.198.223zm-5.351-9.97h9.62q-.064-1.975-1.227-3.082-1.162-1.107-3.328-1.107-2.103 0-3.473 1.107-1.37 1.107-1.592 3.082zM291.121 26.917q-2.468 0-4.38-1.083-1.911-1.083-2.994-2.954-1.083-1.872-1.083-4.245 0-1.8.645-3.313.645-1.513 1.824-2.628 1.178-1.115 2.763-1.728t3.464-.613q1.53 0 2.82.398 1.29.398 2.389 1.226l-1.498 2.262q-.716-.621-1.672-.932-.956-.31-2.023-.31-1.752 0-3.034.66-1.282.662-1.983 1.92-.7 1.258-.7 3.026 0 2.66 1.536 4.165 1.537 1.505 4.165 1.505 1.21 0 2.262-.438 1.051-.438 1.72-1.138l1.513 2.23q-1.226.923-2.692 1.457-1.465.533-3.042.533zM306.698 26.917q-2.182 0-3.512-1.274t-1.33-3.934V6.244h2.931v4.587h4.571v2.484h-4.57v7.661q0 1.784.644 2.509.645.725 1.888.725.557 0 1.059-.128.501-.127.884-.334l.605 2.405q-.653.35-1.481.557-.829.207-1.689.207zm-8.41-13.602v-2.484h4.014v2.484zM320.603 26.917q-2.421 0-4.316-1.13-1.896-1.131-2.979-3.01-1.083-1.88-1.083-4.142 0-1.672.621-3.17.622-1.497 1.752-2.651 1.131-1.155 2.66-1.808 1.53-.653 3.345-.653 2.437 0 4.332 1.13 1.896 1.132 2.979 3.011 1.083 1.88 1.083 4.141 0 1.672-.621 3.17-.622 1.497-1.752 2.644-1.131 1.146-2.66 1.807-1.53.661-3.361.661zm0-2.644q1.577 0 2.795-.692 1.219-.693 1.92-1.96.7-1.266.7-2.986 0-1.736-.693-3.002-.692-1.266-1.919-1.951-1.226-.685-2.803-.685t-2.795.685q-1.219.685-1.912 1.95-.692 1.267-.692 3.003 0 1.72.692 2.986.693 1.267 1.92 1.96 1.226.692 2.787.692zM337.725 26.901q-1.848 0-3.496-.55-1.649-.549-2.748-1.472l1.21-2.214q1.036.86 2.366 1.346 1.33.485 2.668.485 1.656 0 2.58-.597.924-.597.924-1.696 0-1.02-.796-1.513-.797-.494-2.963-1.02-2.867-.653-4.165-1.752t-1.298-3.026q0-1.37.765-2.429.764-1.059 2.094-1.664 1.33-.605 3.066-.605 1.72 0 3.21.485 1.489.486 2.588 1.41l-1.131 2.23q-.558-.526-1.314-.908-.757-.382-1.617-.597-.86-.215-1.72-.215-1.418 0-2.317.573-.9.573-.9 1.593 0 1.067.868 1.56.868.494 2.89.972 2.931.653 4.205 1.744 1.275 1.091 1.275 3.003 0 1.48-.78 2.572-.781 1.09-2.183 1.688-1.402.597-3.281.597z" stroke-width=".01593"/></g></svg>