<svg width="55.697" height="7.651" viewBox="0 0 55.697 7.651" xmlns="http://www.w3.org/2000/svg"><g fill="#fff" stroke="#fff"><path d="M.498 6.733l.157-2.798h.882l.158 2.798zm.598-3.286q-.258 0-.449-.164-.19-.164-.19-.448 0-.185.086-.32.087-.136.234-.212.146-.076.32-.076.26 0 .45.164.189.164.189.444 0 .19-.088.327-.089.137-.233.21-.145.075-.319.075zM2.725 5.545v-4.41h1.512q.687 0 1.205.28.519.28.809.776.29.496.29 1.149 0 .491-.166.896-.165.405-.471.698-.306.293-.728.452-.422.159-.939.159zm1.046-.974h.413q.283 0 .513-.078.23-.08.399-.237.168-.157.258-.387t.09-.53q0-.4-.157-.675-.158-.276-.443-.416-.285-.14-.66-.14H3.77zM8.74 5.64q-.53 0-.93-.213t-.624-.596q-.223-.382-.223-.896 0-.372.13-.684.131-.312.366-.538.235-.227.554-.352.32-.124.704-.124.423 0 .753.15.331.15.547.415.216.267.298.627.082.361.006.783H7.908q.003.19.113.331.11.142.303.222.192.08.447.08.284 0 .539-.074.255-.074.488-.228l.325.7q-.149.113-.383.203-.235.09-.498.141-.263.052-.503.052zm-.77-2.124h1.368q-.006-.243-.18-.388-.173-.144-.469-.144-.3 0-.496.144-.197.145-.222.388zM12.167 5.633q-.447 0-.817-.11-.37-.11-.638-.312l.321-.709q.262.167.56.263.3.096.568.096.246 0 .375-.068.129-.067.129-.196 0-.114-.118-.167-.118-.054-.462-.117-.649-.11-.95-.364-.3-.253-.3-.695 0-.315.173-.55.173-.237.48-.368.307-.13.708-.13.39 0 .738.103.349.104.597.29l-.312.709q-.129-.098-.297-.173-.169-.076-.348-.117-.18-.04-.35-.04-.211 0-.342.064-.13.064-.13.178 0 .116.113.173.113.057.453.13.687.138.974.373.287.234.287.656 0 .328-.178.57-.178.243-.495.377t-.739.134zM14.253 6.868V2.331h.891V2.7q.18-.211.459-.337.279-.126.647-.126.46 0 .821.21.36.212.569.596.208.385.208.895 0 .36-.119.67-.118.31-.335.541-.217.232-.512.361-.295.13-.65.13-.284 0-.522-.092-.238-.091-.427-.258v1.578zm1.805-2.117q.224 0 .4-.1.177-.099.277-.281.101-.183.101-.432 0-.252-.102-.433-.103-.181-.277-.28-.175-.1-.399-.1-.22 0-.397.1-.176.099-.277.28-.1.181-.1.433 0 .249.1.432.1.182.276.282.174.099.398.099zM20.003 5.64q-.53 0-.93-.213t-.624-.596q-.223-.382-.223-.896 0-.372.13-.684.131-.312.366-.538.235-.227.554-.352.32-.124.704-.124.423 0 .753.15.331.15.547.415.216.267.298.627.082.361.006.783h-2.413q.003.19.113.331.11.142.303.222.192.08.447.08.284 0 .539-.074.255-.074.488-.228l.325.7q-.148.113-.383.203-.235.09-.498.141-.263.052-.502.052zm-.77-2.124h1.368q-.006-.243-.18-.388-.173-.144-.469-.144-.3 0-.496.144-.197.145-.222.388zM23.68 6.963q-.347 0-.66-.065-.311-.065-.573-.21l.215-.815q.22.107.456.159.237.052.489.052.488 0 .742-.207.253-.206.253-.584v-.706l.133.22q-.123.319-.43.505-.308.186-.758.186-.466 0-.816-.208-.35-.208-.545-.577-.196-.368-.196-.847 0-.356.11-.656.111-.299.317-.518.207-.219.493-.337.287-.118.637-.118.45 0 .758.184.307.184.43.503l-.133.223v-.822h.933V5.12q0 .885-.476 1.364-.476.479-1.38.479zm.075-2.332q.22 0 .392-.094.172-.095.268-.268.096-.173.096-.403 0-.227-.096-.4-.096-.174-.268-.27-.172-.096-.392-.096-.224 0-.394.096t-.268.27q-.098.173-.098.4 0 .23.098.403.098.173.268.268.17.094.394.094zM27.724 5.64q-.453 0-.812-.213-.36-.213-.568-.596-.207-.382-.207-.893 0-.384.12-.698.119-.313.333-.537.214-.224.504-.345.29-.121.63-.121.448 0 .763.194.315.193.45.515l-.141.223v-.838h.888v3.214h-.888v-.838l.141.22q-.135.322-.45.517t-.763.195zm.177-.889q.214 0 .386-.1.171-.099.272-.281.101-.183.101-.432 0-.252-.1-.433-.102-.181-.273-.28-.172-.1-.386-.1-.214 0-.385.1-.17.099-.27.28-.101.181-.101.433 0 .249.1.432.101.182.271.282.17.099.385.099zM30.54 5.545V2.33h1.034v.397q.117-.163.274-.272.158-.109.338-.164.18-.055.362-.055.353 0 .61.159.256.16.35.427.19-.306.508-.446t.677-.14q.467 0 .734.178.268.178.38.46.112.282.112.597v2.073h-1.034V3.768q0-.27-.141-.433-.142-.162-.413-.162-.17 0-.302.072-.133.072-.207.194-.074.121-.074.272v1.834h-1.033V3.768q0-.27-.144-.433-.143-.162-.41-.162-.174 0-.306.072-.133.072-.207.194-.074.121-.074.272v1.834zM38.282 5.64q-.526 0-.93-.232-.403-.232-.631-.62-.229-.387-.229-.85 0-.337.131-.644.13-.307.37-.545.24-.238.567-.375.328-.137.722-.137.526 0 .93.231.402.232.63.62.226.387.226.85 0 .337-.13.644-.128.308-.368.544-.24.236-.567.375-.327.138-.721.138zm0-.889q.22 0 .397-.1.176-.099.277-.281.1-.183.1-.432 0-.252-.098-.433-.1-.181-.276-.28-.177-.1-.4-.1-.224 0-.4.1-.177.099-.278.28-.1.181-.1.433 0 .249.102.432.102.182.279.282.176.099.397.099zM41.88 5.633q-.448 0-.818-.11-.37-.11-.638-.312l.321-.709q.262.167.561.263.3.096.567.096.246 0 .375-.068.13-.067.13-.196 0-.114-.119-.167-.118-.054-.461-.117-.65-.11-.95-.364-.301-.253-.301-.695 0-.315.173-.55.173-.237.48-.368.308-.13.708-.13.39 0 .739.103.348.104.597.29l-.312.709q-.13-.098-.298-.173-.168-.076-.348-.117-.18-.04-.35-.04-.21 0-.342.064-.13.064-.13.178 0 .116.113.173.114.057.454.13.687.138.973.373.287.234.287.656 0 .328-.178.57-.178.243-.495.377-.316.134-.738.134zM44.183 3.932l-.158-2.798h1.197l-.157 2.798zm.44 1.707q-.258 0-.448-.163-.19-.164-.19-.445 0-.189.086-.324.086-.136.233-.211.146-.076.32-.076.261 0 .45.164.19.164.19.447 0 .19-.087.325t-.234.21q-.146.073-.32.073z" stroke-width=".00315"/></g></svg>