<svg width="134.853" height="107" viewBox="0 0 134.853 107" xmlns="http://www.w3.org/2000/svg"><g fill="#47A01A" stroke="#fff"><path d="M5.454 73.342a5.341 5.341 0 005.357 5.357c2.046 0 3.41-.779 4.578-2.24l17.045-22.207L49.48 76.459c1.169 1.558 2.63 2.24 4.578 2.24a5.341 5.341 0 005.357-5.357c0-1.266-.39-2.532-1.169-3.506L39.252 45.29l18.701-24.253c.78-.974 1.169-2.045 1.169-3.214 0-3.02-2.533-5.552-5.65-5.552-1.655 0-3.116.682-4.188 2.046L32.434 36.33l-16.85-22.012a5.309 5.309 0 00-4.188-2.046c-3.117 0-5.65 2.533-5.65 5.552 0 1.169.39 2.24 1.17 3.214l18.7 24.253L6.623 69.836c-.779.974-1.169 2.24-1.169 3.506zM70.323 73.342A5.341 5.341 0 0075.68 78.7c2.045 0 3.409-.779 4.578-2.24l17.045-22.207 17.045 22.207c1.168 1.558 2.63 2.24 4.577 2.24a5.341 5.341 0 005.357-5.357c0-1.266-.39-2.532-1.168-3.506L104.12 45.29l18.7-24.253c.78-.974 1.17-2.045 1.17-3.214 0-3.02-2.533-5.552-5.65-5.552-1.656 0-3.117.682-4.188 2.046L97.303 36.33l-16.85-22.012a5.309 5.309 0 00-4.189-2.046c-3.117 0-5.649 2.533-5.649 5.552 0 1.169.39 2.24 1.169 3.214l18.7 24.253-18.992 24.545c-.78.974-1.17 2.24-1.17 3.506z" stroke-width=".0974"/></g></svg>