<svg width="140" height="40" viewBox="0 0 140 40" xmlns="http://www.w3.org/2000/svg"><g fill="#47A01a" stroke="#47A01a"><path d="M19.04 25.2h3.264v-4.096h.768l2.32 4.096h3.456l-2.736-4.736c1.2-.464 2.064-1.376 2.064-3.008v-.064c0-2.416-1.664-3.632-4.656-3.632h-4.48zm3.264-6.224v-2.752h1.072c1.056 0 1.632.368 1.632 1.296v.064c0 .928-.544 1.392-1.648 1.392zM33.632 25.392c2.528 0 3.984-1.072 4.24-2.96h-2.688c-.112.56-.512.992-1.456.992-1.024 0-1.664-.64-1.744-1.744h5.888v-.752c0-3.008-1.968-4.32-4.256-4.32-2.528 0-4.528 1.696-4.528 4.384v.128c0 2.736 1.92 4.272 4.544 4.272zm-1.616-5.328c.144-1.008.736-1.568 1.6-1.568.928 0 1.424.56 1.472 1.568zM42.464 25.392c2.32 0 3.792-.896 3.792-2.88 0-1.792-1.12-2.4-3.44-2.688-1.024-.128-1.408-.288-1.408-.688 0-.384.32-.656.944-.656.656 0 .96.272 1.072.832h2.592c-.192-2-1.632-2.704-3.696-2.704-1.936 0-3.584.896-3.584 2.752 0 1.744.944 2.4 3.184 2.688 1.152.16 1.552.352 1.552.752 0 .416-.32.688-1.024.688-.816 0-1.088-.336-1.184-.944h-2.64c.064 1.856 1.456 2.848 3.84 2.848zM51.6 25.392c2.528 0 3.984-1.072 4.24-2.96h-2.688c-.112.56-.512.992-1.456.992-1.024 0-1.664-.64-1.744-1.744h5.888v-.752c0-3.008-1.968-4.32-4.256-4.32-2.528 0-4.528 1.696-4.528 4.384v.128c0 2.736 1.92 4.272 4.544 4.272zm-1.616-5.328c.144-1.008.736-1.568 1.6-1.568.928 0 1.424.56 1.472 1.568zM57.072 25.2h2.864v-3.968c0-1.344.96-1.888 2.704-1.84V16.72c-1.296-.016-2.176.528-2.704 1.776v-1.664h-2.864zM66.432 25.2h3.12l3.056-8.368h-2.736l-1.712 5.392-1.744-5.392H63.36zM75.6 25.392c1.344 0 2.08-.56 2.48-1.168v.976h2.784v-5.424c0-2.224-1.472-3.168-3.776-3.168-2.288 0-3.872.992-4 3.008h2.688c.064-.528.352-.992 1.136-.992.912 0 1.104.528 1.104 1.328v.192h-.8c-2.784 0-4.448.768-4.448 2.736 0 1.776 1.328 2.512 2.832 2.512zm.992-1.936c-.672 0-.992-.304-.992-.784 0-.688.512-.912 1.664-.912h.752v.512c0 .72-.608 1.184-1.424 1.184zM86.88 28h2.736l4.48-11.168H91.36l-1.6 4.464-1.728-4.464h-3.104l3.344 7.52zM97.104 25.392c1.344 0 2.08-.56 2.48-1.168v.976h2.784v-5.424c0-2.224-1.472-3.168-3.776-3.168-2.288 0-3.872.992-4 3.008h2.688c.064-.528.352-.992 1.136-.992.912 0 1.104.528 1.104 1.328v.192h-.8c-2.784 0-4.448.768-4.448 2.736 0 1.776 1.328 2.512 2.832 2.512zm.992-1.936c-.672 0-.992-.304-.992-.784 0-.688.512-.912 1.664-.912h.752v.512c0 .72-.608 1.184-1.424 1.184z" stroke-width=".016"/></g></svg>