<?xml version="1.0" encoding="UTF-8"?>
<svg id="Capa_2" data-name="Capa 2" xmlns="http://www.w3.org/2000/svg" viewBox="0 0 268 192">
  <defs>
    <style>
      .cls-1 {
        fill: #47a12b;
      }

      .cls-1, .cls-2 {
        stroke-width: 0px;
      }

      .cls-2 {
        fill: #fff;
      }
    </style>
  </defs>
  <g id="Capa_2-2" data-name="Capa 2">
    <rect class="cls-1" width="268" height="192"/>
    <g>
      <g>
        <path class="cls-2" d="M42.29,145.52l-1.9,8.94h4.36l-.33,1.61h-6.49l2.25-10.55h2.11Z"/>
        <path class="cls-2" d="M49.12,148.34l-1.64,7.72h-1.98l1.66-7.72h1.96ZM50.73,144.63l-2.63,2.69h-.96l1.76-2.69h1.82Z"/>
        <path class="cls-2" d="M57.02,156.06h-2.04l.87-4.06c.06-.32.09-.62.09-.9,0-.84-.47-1.31-1.23-1.31-1.12,0-2.01.93-2.39,2.72l-.75,3.54h-2.04l1.66-7.78h1.82l-.29,1.37c.79-.99,1.78-1.49,2.83-1.49,1.47,0,2.42.97,2.42,2.6,0,.46-.06,1.05-.21,1.75l-.74,3.56Z"/>
        <path class="cls-2" d="M61.07,152.71c-.02.09-.02.2-.02.29,0,1.16.79,1.85,2.19,1.85.8,0,1.54-.17,2.22-.5l-.11,1.52c-.85.29-1.69.42-2.54.42-2.29,0-3.66-1.37-3.66-3.57,0-1.22.47-2.42,1.28-3.28.88-.94,1.87-1.34,3.22-1.34,1.9,0,3.08,1.19,3.08,3.12,0,.39-.05.88-.15,1.49h-5.52ZM65.02,151.05c0-1.03-.56-1.63-1.5-1.63-1.02,0-1.9.75-2.23,2.05h3.71c.02-.15.03-.29.03-.43Z"/>
        <path class="cls-2" d="M74.35,154.06c-.15.74-.27,1.41-.33,2.01h-1.69l.17-1.19c-.67.9-1.54,1.34-2.61,1.34-1.54,0-2.52-.93-2.52-2.22,0-1.72,1.54-2.81,4.36-2.81.32,0,.76.03,1.34.08.02-.12.03-.26.03-.36,0-.91-.58-1.44-1.64-1.44-.73,0-1.5.18-2.36.56l.24-1.49c.84-.29,1.66-.43,2.52-.43,2.01,0,3.1.94,3.1,2.55,0,.29-.05.67-.14,1.14l-.47,2.26ZM72.01,152.33c-1.79,0-2.69.49-2.69,1.52,0,.62.45,1.05,1.19,1.05,1.14,0,2.08-.93,2.31-2.54-.29-.02-.55-.03-.81-.03Z"/>
        <path class="cls-2" d="M81.87,150c-.64-.32-1.29-.49-1.96-.49-.88,0-1.37.36-1.37.87,0,.56.56.76,1.47,1.28,1.09.62,1.6,1.16,1.6,2.14,0,1.38-1.26,2.48-3.44,2.48-.94,0-1.85-.17-2.72-.49l.46-1.49c.64.35,1.31.5,2.05.5,1.06,0,1.64-.35,1.64-.93,0-.55-.52-.78-1.34-1.23-1.09-.61-1.66-1.11-1.66-2.14,0-1.34,1.2-2.37,3.25-2.37.79,0,1.61.15,2.48.44l-.47,1.43Z"/>
        <path class="cls-2" d="M93.89,154.06c-.15.74-.27,1.41-.33,2.01h-1.69l.17-1.19c-.67.9-1.54,1.34-2.61,1.34-1.53,0-2.52-.93-2.52-2.22,0-1.72,1.54-2.81,4.36-2.81.32,0,.76.03,1.34.08.02-.12.03-.26.03-.36,0-.91-.58-1.44-1.64-1.44-.73,0-1.5.18-2.36.56l.24-1.49c.84-.29,1.66-.43,2.52-.43,2.01,0,3.1.94,3.1,2.55,0,.29-.04.67-.14,1.14l-.47,2.26ZM91.55,152.33c-1.79,0-2.69.49-2.69,1.52,0,.62.46,1.05,1.19,1.05,1.14,0,2.08-.93,2.31-2.54-.29-.02-.55-.03-.81-.03Z"/>
        <path class="cls-2" d="M97.5,152.71c-.02.09-.02.2-.02.29,0,1.16.79,1.85,2.19,1.85.81,0,1.54-.17,2.22-.5l-.11,1.52c-.85.29-1.69.42-2.54.42-2.3,0-3.66-1.37-3.66-3.57,0-1.22.47-2.42,1.28-3.28.88-.94,1.87-1.34,3.22-1.34,1.9,0,3.08,1.19,3.08,3.12,0,.39-.04.88-.15,1.49h-5.52ZM101.46,151.05c0-1.03-.56-1.63-1.5-1.63-1.02,0-1.9.75-2.23,2.05h3.71c.01-.15.03-.29.03-.43ZM102.84,144.63l-2.63,2.69h-.96l1.76-2.69h1.82Z"/>
        <path class="cls-2" d="M109.92,150.03c-.35-.11-.67-.15-.96-.15-1.35,0-1.93.84-2.31,2.58l-.78,3.6h-2.05l1.6-7.75h1.84l-.27,1.32c.75-1,1.49-1.5,2.46-1.5.29,0,.59.06.91.15l-.44,1.75Z"/>
        <path class="cls-2" d="M111.97,152.71c-.02.09-.02.2-.02.29,0,1.16.79,1.85,2.19,1.85.81,0,1.54-.17,2.22-.5l-.11,1.52c-.85.29-1.69.42-2.54.42-2.29,0-3.66-1.37-3.66-3.57,0-1.22.47-2.42,1.28-3.28.88-.94,1.87-1.34,3.22-1.34,1.9,0,3.08,1.19,3.08,3.12,0,.39-.04.88-.15,1.49h-5.52ZM115.92,151.05c0-1.03-.56-1.63-1.5-1.63-1.02,0-1.9.75-2.23,2.05h3.71c.01-.15.03-.29.03-.43Z"/>
        <path class="cls-2" d="M125.25,154.06c-.15.74-.27,1.41-.33,2.01h-1.69l.17-1.19c-.67.9-1.54,1.34-2.61,1.34-1.53,0-2.52-.93-2.52-2.22,0-1.72,1.54-2.81,4.36-2.81.32,0,.76.03,1.34.08.02-.12.03-.26.03-.36,0-.91-.58-1.44-1.64-1.44-.73,0-1.5.18-2.36.56l.24-1.49c.84-.29,1.66-.43,2.52-.43,2.01,0,3.1.94,3.1,2.55,0,.29-.04.67-.14,1.14l-.47,2.26ZM122.91,152.33c-1.79,0-2.69.49-2.69,1.52,0,.62.46,1.05,1.19,1.05,1.14,0,2.08-.93,2.31-2.54-.29-.02-.55-.03-.81-.03Z"/>
        <path class="cls-2" d="M132.77,150c-.64-.32-1.29-.49-1.96-.49-.88,0-1.37.36-1.37.87,0,.56.56.76,1.47,1.28,1.09.62,1.6,1.16,1.6,2.14,0,1.38-1.26,2.48-3.44,2.48-.94,0-1.85-.17-2.72-.49l.46-1.49c.64.35,1.31.5,2.05.5,1.06,0,1.64-.35,1.64-.93,0-.55-.52-.78-1.34-1.23-1.09-.61-1.66-1.11-1.66-2.14,0-1.34,1.2-2.37,3.25-2.37.79,0,1.61.15,2.48.44l-.47,1.43Z"/>
        <path class="cls-2" d="M147.66,144.7l-2.39,11.37h-1.81l.27-1.29c-.73.99-1.67,1.5-2.77,1.5-1.78,0-2.87-1.23-2.87-3.36,0-2.8,1.67-4.74,3.94-4.74,1.22,0,2.08.53,2.57,1.58l1.08-5.06h1.98ZM142.46,149.71c-1.23,0-2.29,1.34-2.29,3.27,0,1.03.62,1.75,1.54,1.75,1.28,0,2.42-1.35,2.42-3.12,0-1.17-.67-1.9-1.66-1.9Z"/>
        <path class="cls-2" d="M149.4,152.71c-.02.09-.02.2-.02.29,0,1.16.79,1.85,2.19,1.85.81,0,1.54-.17,2.22-.5l-.11,1.52c-.85.29-1.69.42-2.54.42-2.29,0-3.66-1.37-3.66-3.57,0-1.22.47-2.42,1.28-3.28.88-.94,1.87-1.34,3.22-1.34,1.9,0,3.08,1.19,3.08,3.12,0,.39-.04.88-.15,1.49h-5.52ZM153.36,151.05c0-1.03-.56-1.63-1.5-1.63-1.02,0-1.9.75-2.23,2.05h3.71c.01-.15.03-.29.03-.43Z"/>
        <path class="cls-2" d="M169.75,147.55c-.84-.44-1.66-.65-2.54-.65-1.43,0-2.52.44-3.36,1.4-.65.76-1.09,1.91-1.09,3.02,0,1.98,1.29,3.27,3.37,3.27.71,0,1.47-.17,2.31-.53l-.2,1.84c-.9.26-1.76.38-2.6.38-3.15,0-5.06-1.9-5.06-4.88,0-1.88.81-3.59,2.29-4.8,1.03-.85,2.46-1.29,4.26-1.29.94,0,1.99.2,3.15.58l-.53,1.67Z"/>
        <path class="cls-2" d="M176.6,154.06c-.15.74-.27,1.41-.33,2.01h-1.69l.17-1.19c-.67.9-1.54,1.34-2.61,1.34-1.54,0-2.52-.93-2.52-2.22,0-1.72,1.54-2.81,4.36-2.81.32,0,.76.03,1.34.08.02-.12.03-.26.03-.36,0-.91-.58-1.44-1.64-1.44-.73,0-1.5.18-2.36.56l.24-1.49c.84-.29,1.66-.43,2.52-.43,2.01,0,3.1.94,3.1,2.55,0,.29-.04.67-.14,1.14l-.47,2.26ZM174.26,152.33c-1.79,0-2.69.49-2.69,1.52,0,.62.46,1.05,1.19,1.05,1.14,0,2.08-.93,2.31-2.54-.29-.02-.55-.03-.81-.03Z"/>
        <path class="cls-2" d="M185.5,156.06h-2.04l.87-4.06c.06-.32.09-.62.09-.9,0-.84-.47-1.31-1.23-1.31-1.12,0-2.01.93-2.39,2.72l-.74,3.54h-2.04l1.66-7.78h1.82l-.29,1.37c.79-.99,1.78-1.49,2.83-1.49,1.47,0,2.42.97,2.42,2.6,0,.46-.06,1.05-.21,1.75l-.75,3.56Z"/>
        <path class="cls-2" d="M194.38,154.06c-.15.74-.27,1.41-.34,2.01h-1.69l.17-1.19c-.67.9-1.54,1.34-2.61,1.34-1.54,0-2.52-.93-2.52-2.22,0-1.72,1.54-2.81,4.36-2.81.32,0,.76.03,1.34.08.02-.12.03-.26.03-.36,0-.91-.58-1.44-1.64-1.44-.73,0-1.5.18-2.36.56l.24-1.49c.84-.29,1.66-.43,2.52-.43,2.01,0,3.1.94,3.1,2.55,0,.29-.04.67-.14,1.14l-.47,2.26ZM192.04,152.33c-1.79,0-2.69.49-2.69,1.52,0,.62.46,1.05,1.19,1.05,1.14,0,2.08-.93,2.31-2.54-.29-.02-.55-.03-.81-.03Z"/>
        <path class="cls-2" d="M201.94,150.03c-.35-.11-.67-.15-.96-.15-1.35,0-1.93.84-2.31,2.58l-.78,3.6h-2.05l1.6-7.75h1.84l-.27,1.32c.75-1,1.49-1.5,2.46-1.5.29,0,.59.06.91.15l-.44,1.75Z"/>
        <path class="cls-2" d="M205.59,148.34l-1.64,7.72h-1.98l1.66-7.72h1.96ZM203.89,146.94l.41-1.99h2.04l-.41,1.99h-2.04Z"/>
        <path class="cls-2" d="M213.02,154.06c-.15.74-.27,1.41-.33,2.01h-1.69l.17-1.19c-.67.9-1.54,1.34-2.61,1.34-1.53,0-2.52-.93-2.52-2.22,0-1.72,1.54-2.81,4.36-2.81.32,0,.76.03,1.34.08.02-.12.03-.26.03-.36,0-.91-.58-1.44-1.64-1.44-.73,0-1.5.18-2.36.56l.24-1.49c.84-.29,1.66-.43,2.52-.43,2.01,0,3.1.94,3.1,2.55,0,.29-.04.67-.14,1.14l-.47,2.26ZM210.68,152.33c-1.79,0-2.69.49-2.69,1.52,0,.62.46,1.05,1.19,1.05,1.14,0,2.08-.93,2.31-2.54-.29-.02-.55-.03-.81-.03Z"/>
        <path class="cls-2" d="M220.54,150c-.64-.32-1.29-.49-1.96-.49-.88,0-1.37.36-1.37.87,0,.56.56.76,1.47,1.28,1.09.62,1.6,1.16,1.6,2.14,0,1.38-1.26,2.48-3.44,2.48-.94,0-1.85-.17-2.72-.49l.46-1.49c.64.35,1.31.5,2.05.5,1.06,0,1.64-.35,1.64-.93,0-.55-.52-.78-1.34-1.23-1.09-.61-1.66-1.11-1.66-2.14,0-1.34,1.2-2.37,3.25-2.37.79,0,1.61.15,2.48.44l-.47,1.43Z"/>
      </g>
      <path class="cls-2" d="M69.67,111.03c1.96,0,3.65-.54,5.08-1.61,1.43-1.07,2.15-2.68,2.15-4.82,0-1.91-.51-3.23-1.54-3.93-1.02-.7-2.4-1.06-4.13-1.06h-11.35l-2.39,11.42h12.17ZM66.58,131.73c2.47,0,4.49-.65,6.06-1.97,1.56-1.32,2.35-3.28,2.35-5.88,0-1.28-.26-2.28-.79-3.01-.51-.72-1.18-1.28-2.01-1.67-.82-.39-1.73-.62-2.72-.72-1.01-.08-1.99-.13-2.95-.13h-10.52l-2.87,13.38h13.46ZM71.77,91.27c2.45,0,4.66.17,6.63.49,1.95.31,3.62.9,4.98,1.73,1.37.84,2.41,2.01,3.15,3.49.73,1.48,1.09,3.39,1.09,5.71,0,1.37-.19,2.7-.61,4.01-.41,1.3-1.02,2.45-1.81,3.49-.8,1.03-1.76,1.87-2.87,2.56-1.12.68-2.41,1.12-3.86,1.3v.14c2.31.63,4.1,1.86,5.36,3.65,1.26,1.8,1.88,3.88,1.88,6.25,0,2.65-.52,4.97-1.54,6.98-1.03,2-2.41,3.67-4.13,4.99-1.73,1.32-3.71,2.33-5.94,3.01-2.24.68-4.59,1.02-7.05,1.02h-25.97l10.18-48.81h20.5Z"/>
      <path class="cls-2" d="M104.02,104.76l-7.51,35.32h-9.7l7.44-35.32h9.78Z"/>
      <path class="cls-2" d="M118.03,104.76l-1.09,4.95h.13c3.15-3.92,7.27-5.88,12.38-5.88,6.87,0,10.32,3.16,10.32,9.49,0,.36-.05.83-.14,1.4-.09.57-.19,1.15-.3,1.74-.11.59-.24,1.15-.35,1.68-.11.52-.2.94-.23,1.26l-4.37,20.69h-9.7l4.3-20.68c.08-.53.21-1.26.37-2.18.17-.91.24-1.62.24-2.12,0-1.04-.49-1.91-1.46-2.6-.98-.68-2.04-1.02-3.18-1.02-1.45,0-2.74.28-3.86.85-1.12.57-2.07,1.31-2.87,2.22-.8.92-1.45,1.96-1.98,3.14-.54,1.18-.93,2.39-1.19,3.62l-3.96,18.77h-9.63l7.3-35.32h9.29Z"/>
      <path class="cls-2" d="M165.71,104.76l-1.51,6.47h-6.9l-3.62,17.58-.2.98-.08.65c0,.64.12,1.14.32,1.48l.78.78,1.06.31,1.13.04c1.18,0,2.34-.07,3.48-.21l-1.65,7.44c-1,.1-2,.18-3,.25-1.01.07-2.03.1-3.07.1-1.15,0-2.26-.1-3.39-.31-1.12-.2-2.11-.57-3.01-1.09-.88-.53-1.6-1.24-2.12-2.15-.53-.91-.77-2.1-.72-3.56,0-.45.04-.97.14-1.54.09-.57.2-1.17.35-1.81l3.96-18.94h-6.35l1.5-6.47h6.22l2.18-10.72h9.7l-2.18,10.72h6.98Z"/>
      <path class="cls-2" d="M190.55,115.95c-.16-.89-.46-1.7-.92-2.42-.47-.73-1.12-1.32-1.99-1.74-.87-.44-2-.66-3.42-.66s-2.58.21-3.62.62c-1.04.41-1.96.96-2.74,1.64-.77.69-1.42,1.48-1.95,2.39-.52.91-.97,1.86-1.33,2.86h16.19c0-.91-.08-1.81-.23-2.69M173.51,125.38v1.43c0,2.05.64,3.71,1.91,4.99,1.29,1.28,3.24,1.91,5.88,1.91.97,0,1.81-.14,2.57-.44.75-.29,1.41-.67,1.98-1.12.57-.45,1.07-.98,1.51-1.57.43-.59.82-1.16,1.19-1.71h9.7c-.77,2.01-1.69,3.76-2.73,5.27-1.04,1.5-2.29,2.77-3.76,3.8-1.45,1.02-3.15,1.79-5.09,2.29-1.94.51-4.17.75-6.73.75-2.37,0-4.52-.31-6.45-.95-1.95-.65-3.59-1.62-4.94-2.91-1.37-1.3-2.43-2.91-3.18-4.82-.76-1.91-1.13-4.14-1.13-6.69,0-2.82.45-5.54,1.37-8.16.91-2.62,2.19-4.93,3.85-6.96,1.67-2.02,3.69-3.65,6.11-4.85,2.41-1.21,5.13-1.81,8.12-1.81,2.48,0,4.71.32,6.74.96,2.03.64,3.75,1.61,5.2,2.91,1.45,1.29,2.54,2.91,3.35,4.84.79,1.94,1.19,4.17,1.19,6.72,0,1.73-.19,3.57-.55,5.52h-26.04l-.06.62Z"/>
      <path class="cls-2" d="M216.57,104.76l-1.44,6.35.13.13c1.1-2.46,2.76-4.33,4.96-5.58,2.2-1.25,4.61-1.88,7.2-1.88,1,0,2.01.07,3.02.21l-1.99,9.44c-.68-.14-1.37-.27-2.04-.41-.69-.13-1.37-.2-2.05-.2-1.87,0-3.45.32-4.75.96-1.31.64-2.4,1.5-3.29,2.6-.88,1.09-1.59,2.33-2.12,3.72-.52,1.4-.95,2.84-1.26,4.34l-3.28,15.65h-9.65l7.32-35.32h9.22Z"/>
      <polygon class="cls-2" points="95.35 99.27 97.12 91.27 106.89 91.27 105.12 99.27 95.35 99.27"/>
    </g>
  </g>
</svg>